<svg width="493" height="138" viewBox="0 0 493 138" fill="none" xmlns="http://www.w3.org/2000/svg">
<path d="M66.4615 25.8109L31.9868 96.8155L31.1324 98.578H8.22506C5.88293 98.578 4.02477 97.2636 2.77604 95.6922C1.09114 93.5234 -0.988087 90.4583 0.523538 87.3335L41.1223 3.71013C41.2836 3.37554 41.4748 3.05888 41.684 2.76611C50.6999 9.54154 58.9989 17.267 66.4555 25.8109" fill="#D4D6D5"/>
<path d="M94.6507 11.2446L90.8089 19.1672H73.6613C71.2295 19.1672 69.0129 20.5593 67.9493 22.7461L67.6566 23.3436C60.3733 15.0924 52.3073 7.59398 43.5781 0.991819C44.6058 0.352515 45.8127 0 47.0614 0H86.9492C89.2913 0 91.2451 1.17704 92.4042 2.88583C94.9853 4.6245 96.1683 8.11976 94.6567 11.2446" fill="#D4D6D5"/>
<path d="M89.9482 60.8654L63.187 115.983L62.3267 117.746H34.5797C32.3033 117.746 30.4152 116.598 29.3039 114.931C28.115 113.157 27.8102 110.803 28.8678 108.628L33.7432 98.5784L34.6036 96.8158L68.1342 27.759C76.6244 37.7967 83.9614 48.8979 89.9482 60.8654Z" fill="#ED2926"/>
<path d="M121.591 30.0472L117.719 38.0296H104.748C102.484 38.0296 100.404 39.3261 99.4125 41.3695L91.3226 58.0392C85.2522 46.2031 77.8554 35.2154 69.3473 25.2793L69.7177 24.5086C70.7812 22.3218 72.9979 20.9297 75.4296 20.9297H115.885C117.205 20.9297 118.406 21.324 119.392 21.9813C121.896 23.6482 123.061 27.03 121.591 30.0472Z" fill="#ED2926"/>
<path d="M107.825 136.489C107.436 136.572 107.042 136.614 106.642 136.614H65.2602C63.1093 136.614 61.3228 135.509 60.2951 133.92C59.2197 132.277 58.9568 130.108 59.9247 128.1L64.9495 117.752L65.8039 115.989L91.2566 63.5603C101.754 85.5416 107.711 110.301 107.819 136.495" fill="#0A2543"/>
<path d="M153.228 48.3071L111.978 133.275C111.577 134.099 111.004 134.804 110.311 135.336C110.024 108.479 103.69 83.1222 92.655 60.6809L101.175 43.1269C102.167 41.0895 104.24 39.793 106.511 39.793H147.904C149.111 39.793 150.198 40.1395 151.107 40.725C153.496 42.2665 154.62 45.4571 153.234 48.3071" fill="#0A2543"/>
<path d="M365.16 53.0083C365.566 53.54 365.769 54.1793 365.769 54.9262C365.769 56.0196 365.327 56.868 364.449 57.4595C363.565 58.057 362.292 58.3497 360.625 58.3497H353.874V45.8445H360.267C361.862 45.8445 363.075 46.1372 363.911 46.7287C364.748 47.3202 365.16 48.1149 365.16 49.1127C365.16 49.7102 365.017 50.2419 364.724 50.7139C364.431 51.186 364.019 51.5564 363.481 51.8312C364.198 52.0822 364.754 52.4705 365.16 53.0023M357.375 48.4017V50.8155H359.807C360.996 50.8155 361.593 50.4092 361.593 49.6026C361.593 48.796 360.996 48.4077 359.807 48.4077H357.375V48.4017ZM362.197 54.5259C362.197 53.6774 361.575 53.2592 360.338 53.2592H357.375V55.7985H360.338C361.575 55.7985 362.197 55.3743 362.197 54.5318" fill="#0A2543"/>
<path d="M369.043 57.09C368.016 56.0803 367.496 54.6404 367.496 52.7882V45.8574H371.033V52.6807C371.033 54.6822 371.827 55.68 373.411 55.68C374.994 55.68 375.771 54.6822 375.771 52.6807V45.8574H379.254V52.7882C379.254 54.6464 378.74 56.0803 377.707 57.09C376.673 58.0998 375.233 58.6076 373.375 58.6076C371.517 58.6076 370.071 58.0998 369.043 57.09Z" fill="#0A2543"/>
<path d="M383.09 58.2356C382.14 57.9847 381.363 57.6501 380.765 57.2378L381.924 54.6328C382.486 55.0032 383.131 55.302 383.872 55.523C384.613 55.7501 385.336 55.8636 386.053 55.8636C387.409 55.8636 388.09 55.523 388.09 54.8479C388.09 54.4894 387.899 54.2265 387.511 54.0532C387.123 53.88 386.501 53.7007 385.647 53.5095C384.709 53.3064 383.92 53.0913 383.287 52.8583C382.653 52.6253 382.116 52.2548 381.662 51.741C381.208 51.2272 380.986 50.5401 380.986 49.6677C380.986 48.903 381.196 48.2159 381.614 47.6064C382.032 46.991 382.653 46.5071 383.478 46.1486C384.302 45.7901 385.318 45.6108 386.525 45.6108C387.35 45.6108 388.156 45.7005 388.957 45.8857C389.751 46.0709 390.457 46.3398 391.066 46.6983L389.979 49.3272C388.79 48.6819 387.63 48.3593 386.513 48.3593C385.808 48.3593 385.3 48.4668 384.978 48.6699C384.655 48.8791 384.494 49.1479 384.494 49.4825C384.494 49.8171 384.685 50.068 385.067 50.2353C385.45 50.4026 386.059 50.5759 386.907 50.7552C387.857 50.9583 388.652 51.1734 389.274 51.4064C389.901 51.6394 390.439 52.0099 390.899 52.5117C391.359 53.0196 391.586 53.7067 391.586 54.573C391.586 55.3259 391.377 56.001 390.958 56.6105C390.54 57.2199 389.919 57.7038 389.082 58.0683C388.246 58.4328 387.236 58.612 386.047 58.612C385.037 58.612 384.052 58.4865 383.102 58.2356" fill="#0A2543"/>
<path d="M396.742 45.8574H393.205V58.3627H396.742V45.8574Z" fill="#0A2543"/>
<path d="M411.153 45.8574V58.3627H408.244L402.723 51.6948V58.3627H399.258V45.8574H402.167L407.688 52.5193V45.8574H411.153Z" fill="#0A2543"/>
<path d="M423.689 55.6262V58.3627H413.651V45.8574H423.461V48.5879H417.152V50.697H422.709V53.3379H417.152V55.6262H423.689Z" fill="#0A2543"/>
<path d="M427.1 58.2356C426.15 57.9847 425.374 57.6501 424.776 57.2378L425.935 54.6328C426.497 55.0032 427.142 55.302 427.883 55.523C428.624 55.7501 429.347 55.8636 430.064 55.8636C431.42 55.8636 432.101 55.523 432.101 54.8479C432.101 54.4894 431.91 54.2265 431.522 54.0532C431.133 53.88 430.512 53.7007 429.658 53.5095C428.719 53.3064 427.931 53.0913 427.297 52.8583C426.664 52.6253 426.126 52.2548 425.672 51.741C425.218 51.2272 424.997 50.5401 424.997 49.6677C424.997 48.903 425.206 48.2159 425.625 47.6064C426.043 46.991 426.664 46.5071 427.489 46.1486C428.313 45.7901 429.329 45.6108 430.536 45.6108C431.36 45.6108 432.167 45.7005 432.968 45.8857C433.768 46.0709 434.467 46.3398 435.077 46.6983L433.989 49.3272C432.8 48.6819 431.641 48.3593 430.524 48.3593C429.819 48.3593 429.311 48.4668 428.988 48.6699C428.666 48.8791 428.504 49.1479 428.504 49.4825C428.504 49.8171 428.696 50.068 429.078 50.2353C429.46 50.4026 430.07 50.5759 430.918 50.7552C431.868 50.9583 432.663 51.1734 433.284 51.4064C433.912 51.6394 434.449 52.0099 434.909 52.5117C435.369 53.0196 435.596 53.7067 435.596 54.573C435.596 55.3259 435.387 56.001 434.969 56.6105C434.551 57.2199 433.93 57.7038 433.093 58.0683C432.257 58.4328 431.247 58.612 430.058 58.612C429.048 58.612 428.062 58.4865 427.112 58.2356" fill="#0A2543"/>
<path d="M438.662 58.2356C437.712 57.9847 436.935 57.6501 436.337 57.2378L437.497 54.6328C438.058 55.0032 438.703 55.302 439.444 55.523C440.185 55.7501 440.908 55.8636 441.625 55.8636C442.981 55.8636 443.663 55.523 443.663 54.8479C443.663 54.4894 443.471 54.2265 443.083 54.0532C442.695 53.88 442.073 53.7007 441.219 53.5095C440.281 53.3064 439.492 53.0913 438.859 52.8583C438.225 52.6253 437.688 52.2548 437.234 51.741C436.78 51.2272 436.558 50.5401 436.558 49.6677C436.558 48.903 436.768 48.2159 437.186 47.6064C437.604 46.991 438.225 46.5071 439.05 46.1486C439.875 45.7901 440.89 45.6108 442.097 45.6108C442.922 45.6108 443.728 45.7005 444.529 45.8857C445.329 46.0709 446.029 46.3398 446.638 46.6983L445.551 49.3272C444.362 48.6819 443.202 48.3593 442.085 48.3593C441.38 48.3593 440.872 48.4668 440.55 48.6699C440.227 48.8791 440.066 49.1479 440.066 49.4825C440.066 49.8171 440.257 50.068 440.639 50.2353C441.022 50.4026 441.631 50.5759 442.48 50.7552C443.43 50.9583 444.224 51.1734 444.846 51.4064C445.473 51.6394 446.011 52.0099 446.471 52.5117C446.931 53.0196 447.158 53.7067 447.158 54.573C447.158 55.3259 446.949 56.001 446.53 56.6105C446.112 57.2199 445.491 57.7038 444.654 58.0683C443.818 58.4328 442.808 58.612 441.619 58.612C440.609 58.612 439.624 58.4865 438.674 58.2356" fill="#0A2543"/>
<path d="M359.334 76.4718H357.404V79.7938H353.867V67.2886H359.585C360.714 67.2886 361.7 67.4738 362.531 67.8502C363.361 68.2266 364.006 68.7584 364.46 69.4574C364.915 70.1565 365.142 70.975 365.142 71.9131C365.142 72.8511 364.933 73.6039 364.508 74.2791C364.084 74.9543 363.481 75.48 362.698 75.8624L365.393 79.7938H361.605L359.334 76.4718ZM361.013 70.5628C360.643 70.2401 360.099 70.0788 359.37 70.0788H357.404V73.7414H359.37C360.099 73.7414 360.643 73.586 361.013 73.2694C361.383 72.9527 361.569 72.5046 361.569 71.919C361.569 71.3335 361.383 70.8854 361.013 70.5628Z" fill="#0A2543"/>
<path d="M377.127 77.0574V79.7938H367.089V67.2886H376.894V70.025H370.591V72.1282H376.147V74.775H370.591V77.0574H377.127Z" fill="#0A2543"/>
<path d="M387.452 73.2749H390.577V78.4551C389.86 78.9689 389.041 79.3573 388.115 79.6321C387.189 79.907 386.257 80.0444 385.331 80.0444C384.022 80.0444 382.839 79.7695 381.794 79.2139C380.748 78.6582 379.924 77.8875 379.326 76.9016C378.729 75.9158 378.436 74.7925 378.436 73.5438C378.436 72.2951 378.735 71.1718 379.326 70.186C379.924 69.2001 380.748 68.4294 381.812 67.8737C382.869 67.3181 384.07 67.0432 385.403 67.0432C386.568 67.0432 387.619 67.2404 388.545 67.6347C389.471 68.0291 390.248 68.5907 390.87 69.3316L388.617 71.369C387.775 70.4429 386.759 69.9768 385.582 69.9768C384.512 69.9768 383.646 70.2995 382.989 70.9507C382.332 71.602 382.009 72.4683 382.009 73.5498C382.009 74.2429 382.158 74.8583 382.457 75.396C382.756 75.9397 383.174 76.3579 383.706 76.6626C384.244 76.9674 384.853 77.1167 385.546 77.1167C386.239 77.1167 386.86 76.9793 387.458 76.7045V73.2749H387.452Z" fill="#0A2543"/>
<path d="M396.366 67.2886H392.829V79.7938H396.366V67.2886Z" fill="#0A2543"/>
<path d="M400.327 79.668C399.377 79.417 398.6 79.0825 398.003 78.6702L399.162 76.0652C399.724 76.4356 400.369 76.7343 401.11 76.9554C401.851 77.1824 402.574 77.296 403.291 77.296C404.647 77.296 405.328 76.9554 405.328 76.2803C405.328 75.9218 405.137 75.6589 404.748 75.4856C404.36 75.3123 403.739 75.1331 402.884 74.9419C401.946 74.7388 401.158 74.5237 400.524 74.2907C399.891 74.0576 399.353 73.6872 398.899 73.1734C398.445 72.6595 398.224 71.9724 398.224 71.1001C398.224 70.3413 398.433 69.6542 398.851 69.0388C399.27 68.4234 399.891 67.9394 400.715 67.581C401.54 67.2225 402.556 67.0432 403.763 67.0432C404.587 67.0432 405.394 67.1328 406.194 67.3181C406.995 67.5033 407.694 67.7721 408.303 68.1306L407.216 70.7536C406.027 70.1083 404.868 69.7916 403.751 69.7916C403.046 69.7916 402.538 69.8992 402.215 70.1023C401.893 70.3114 401.731 70.5803 401.731 70.9149C401.731 71.2495 401.922 71.5004 402.305 71.6677C402.687 71.835 403.297 72.0083 404.145 72.1875C405.095 72.3907 405.89 72.6058 406.511 72.8388C407.138 73.0718 407.676 73.4422 408.136 73.9441C408.596 74.452 408.823 75.1391 408.823 76.0054C408.823 76.7582 408.614 77.4334 408.196 78.0428C407.778 78.6523 407.156 79.1362 406.32 79.5007C405.483 79.8651 404.474 80.0444 403.285 80.0444C402.275 80.0444 401.289 79.9189 400.339 79.668" fill="#0A2543"/>
<path d="M412.922 70.0967H409.081V67.2886H420.277V70.0967H416.46V79.7938H412.922V70.0967Z" fill="#0A2543"/>
<path d="M427.065 76.4718H425.135V79.7938H421.598V67.2886H427.316C428.445 67.2886 429.431 67.4738 430.261 67.8502C431.092 68.2266 431.737 68.7584 432.191 69.4574C432.645 70.1565 432.872 70.975 432.872 71.9131C432.872 72.8511 432.663 73.6039 432.239 74.2791C431.815 74.9543 431.211 75.48 430.428 75.8624L433.123 79.7938H429.335L427.065 76.4718ZM428.744 70.5628C428.373 70.2401 427.829 70.0788 427.1 70.0788H425.135V73.7414H427.1C427.829 73.7414 428.373 73.586 428.744 73.2694C429.114 72.9527 429.299 72.5046 429.299 71.919C429.299 71.3335 429.114 70.8854 428.744 70.5628Z" fill="#0A2543"/>
<path d="M443.197 77.3621H437.909L436.923 79.7938H433.314L438.835 67.2886H442.318L447.857 79.7938H444.176L443.191 77.3621H443.197ZM442.163 74.7571L440.556 70.754L438.948 74.7571H442.163Z" fill="#0A2543"/>
<path d="M450.898 70.0967H447.056V67.2886H458.253V70.0967H454.429V79.7938H450.898V70.0967Z" fill="#0A2543"/>
<path d="M463.11 67.2886H459.573V79.7938H463.11V67.2886Z" fill="#0A2543"/>
<path d="M468.374 79.2025C467.323 78.6409 466.492 77.8702 465.889 76.8783C465.285 75.8925 464.987 74.7752 464.987 73.5384C464.987 72.3016 465.285 71.1843 465.889 70.1985C466.492 69.2127 467.317 68.4359 468.374 67.8743C469.426 67.3127 470.615 67.0378 471.935 67.0378C473.256 67.0378 474.445 67.3187 475.496 67.8743C476.548 68.4359 477.378 69.2067 477.982 70.1985C478.585 71.1843 478.884 72.3016 478.884 73.5384C478.884 74.7752 478.585 75.8865 477.982 76.8783C477.378 77.8642 476.554 78.6409 475.496 79.2025C474.445 79.7642 473.256 80.039 471.935 80.039C470.615 80.039 469.426 79.7582 468.374 79.2025ZM473.65 76.6692C474.164 76.3705 474.564 75.9522 474.863 75.4085C475.162 74.8648 475.311 74.2434 475.311 73.5444C475.311 72.8453 475.162 72.218 474.863 71.6803C474.564 71.1365 474.158 70.7183 473.65 70.4196C473.136 70.1208 472.569 69.9715 471.935 69.9715C471.302 69.9715 470.734 70.1208 470.221 70.4196C469.707 70.7183 469.3 71.1365 469.008 71.6803C468.709 72.224 468.559 72.8453 468.559 73.5444C468.559 74.2434 468.709 74.8708 469.008 75.4085C469.306 75.9522 469.707 76.3705 470.221 76.6692C470.734 76.968 471.302 77.1173 471.935 77.1173C472.569 77.1173 473.136 76.968 473.65 76.6692Z" fill="#0A2543"/>
<path d="M492.638 67.2886V79.7938H489.728L484.207 73.1319V79.7938H480.742V67.2886H483.652L489.172 73.9505V67.2886H492.638Z" fill="#0A2543"/>
<path d="M355.319 101.1C354.369 100.849 353.592 100.514 352.995 100.096L354.154 97.4909C354.716 97.8614 355.361 98.1601 356.102 98.3812C356.843 98.6082 357.566 98.7218 358.283 98.7218C359.639 98.7218 360.32 98.3812 360.32 97.706C360.32 97.3475 360.129 97.0847 359.74 96.9114C359.352 96.7381 358.731 96.5589 357.876 96.3677C356.938 96.1645 356.15 95.9494 355.516 95.7164C354.883 95.4834 354.345 95.113 353.891 94.5991C353.437 94.0853 353.216 93.3982 353.216 92.5259C353.216 91.7611 353.425 91.074 353.843 90.4646C354.262 89.8492 354.883 89.3652 355.707 89.0067C356.532 88.6482 357.548 88.469 358.755 88.469C359.579 88.469 360.386 88.5586 361.186 88.7438C361.987 88.929 362.686 89.1979 363.295 89.5564L362.208 92.1793C361.019 91.5341 359.86 91.2174 358.743 91.2174C358.038 91.2174 357.53 91.319 357.207 91.5281C356.884 91.7372 356.723 92.0061 356.723 92.3407C356.723 92.6752 356.914 92.9262 357.297 93.0875C357.679 93.2548 358.289 93.4281 359.137 93.6073C360.087 93.8105 360.882 94.0256 361.503 94.2586C362.13 94.4916 362.668 94.862 363.128 95.3639C363.588 95.8718 363.815 96.5589 363.815 97.4252C363.815 98.178 363.606 98.8532 363.188 99.4626C362.77 100.072 362.148 100.556 361.312 100.92C360.475 101.285 359.466 101.464 358.277 101.464C357.267 101.464 356.281 101.339 355.331 101.088" fill="#0A2543"/>
<path d="M375.466 98.4944V101.225H365.428V88.7256H375.233V91.4561H368.93V93.5652H374.48V96.206H368.93V98.4944H375.466Z" fill="#0A2543"/>
<path d="M382.899 97.9028H380.969V101.225H377.432V88.7195H383.15C384.279 88.7195 385.265 88.9107 386.096 89.2811C386.926 89.6575 387.572 90.1893 388.026 90.8883C388.48 91.5874 388.707 92.4059 388.707 93.344C388.707 94.282 388.498 95.0349 388.073 95.71C387.649 96.3852 387.046 96.9109 386.263 97.2933L388.958 101.225H385.17L382.899 97.9028ZM384.578 91.9877C384.208 91.6651 383.664 91.5037 382.935 91.5037H380.969V95.1663H382.935C383.664 95.1663 384.208 95.0109 384.578 94.6943C384.949 94.3776 385.134 93.9295 385.134 93.344C385.134 92.7585 384.949 92.3103 384.578 91.9877Z" fill="#0A2543"/>
<path d="M403.333 88.7256L397.974 101.225H394.49L389.149 88.7256H392.973L396.366 96.8692L399.832 88.7256H403.333Z" fill="#0A2543"/>
<path d="M407.599 88.7256H404.062V101.231H407.599V88.7256Z" fill="#0A2543"/>
<path d="M412.821 100.646C411.781 100.09 410.963 99.3194 410.365 98.3335C409.768 97.3477 409.475 96.2244 409.475 94.9757C409.475 93.727 409.774 92.6037 410.365 91.6178C410.963 90.632 411.781 89.8553 412.821 89.3056C413.86 88.7499 415.037 88.4751 416.346 88.4751C417.487 88.4751 418.521 88.6783 419.435 89.0845C420.349 89.4908 421.114 90.0704 421.723 90.8352L419.471 92.8726C418.658 91.8987 417.678 91.4087 416.525 91.4087C415.844 91.4087 415.241 91.5581 414.715 91.8568C414.183 92.1556 413.771 92.5738 413.484 93.1175C413.191 93.6612 413.048 94.2826 413.048 94.9817C413.048 95.6807 413.191 96.3081 413.484 96.8458C413.777 97.3895 414.189 97.8078 414.715 98.1065C415.246 98.4052 415.85 98.5546 416.525 98.5546C417.678 98.5546 418.664 98.0647 419.471 97.0908L421.723 99.1282C421.114 99.893 420.355 100.473 419.435 100.879C418.521 101.285 417.487 101.488 416.346 101.488C415.037 101.488 413.86 101.213 412.821 100.658" fill="#0A2543"/>
<path d="M433.338 98.4944V101.225H423.301V88.7256H433.105V91.4561H426.802V93.5652H432.352V96.206H426.802V98.4944H433.338Z" fill="#0A2543"/>
<path d="M170.549 117.757H177.187C178.848 117.757 180.329 118.085 181.62 118.749C182.91 119.412 183.908 120.332 184.619 121.527C185.33 122.722 185.689 124.09 185.689 125.632C185.689 127.173 185.33 128.541 184.619 129.736C183.908 130.925 182.904 131.857 181.62 132.515C180.329 133.172 178.854 133.506 177.187 133.506H170.549V117.763V117.757ZM177.049 131.541C178.322 131.541 179.445 131.296 180.413 130.8C181.381 130.304 182.128 129.611 182.648 128.721C183.173 127.83 183.436 126.797 183.436 125.626C183.436 124.455 183.173 123.427 182.648 122.531C182.122 121.64 181.375 120.947 180.413 120.451C179.445 119.956 178.322 119.711 177.049 119.711H172.801V131.541H177.049Z" fill="#ED2926"/>
<path d="M190.72 132.85C189.776 132.324 189.035 131.601 188.503 130.681C187.971 129.761 187.702 128.715 187.702 127.544C187.702 126.373 187.971 125.327 188.503 124.407C189.035 123.487 189.776 122.764 190.72 122.25C191.664 121.731 192.727 121.474 193.916 121.474C195.105 121.474 196.163 121.731 197.101 122.25C198.039 122.77 198.774 123.487 199.305 124.407C199.837 125.327 200.106 126.373 200.106 127.544C200.106 128.715 199.837 129.761 199.305 130.681C198.774 131.601 198.039 132.33 197.101 132.85C196.163 133.375 195.105 133.638 193.916 133.638C192.727 133.638 191.664 133.375 190.72 132.85ZM195.971 131.219C196.581 130.866 197.053 130.37 197.399 129.737C197.746 129.097 197.919 128.369 197.919 127.544C197.919 126.72 197.746 125.991 197.399 125.351C197.053 124.712 196.581 124.222 195.971 123.875C195.362 123.529 194.675 123.356 193.916 123.356C193.157 123.356 192.464 123.529 191.855 123.875C191.245 124.222 190.767 124.712 190.415 125.351C190.062 125.991 189.883 126.72 189.883 127.544C189.883 128.369 190.062 129.097 190.415 129.737C190.767 130.376 191.245 130.866 191.855 131.219C192.464 131.571 193.145 131.744 193.916 131.744C194.687 131.744 195.368 131.571 195.971 131.219Z" fill="#ED2926"/>
<path d="M203.123 118.881C202.848 118.612 202.705 118.283 202.705 117.889C202.705 117.495 202.842 117.166 203.123 116.885C203.398 116.61 203.751 116.467 204.169 116.467C204.587 116.467 204.94 116.598 205.214 116.861C205.489 117.124 205.633 117.453 205.633 117.841C205.633 118.23 205.495 118.588 205.214 118.863C204.94 119.138 204.587 119.281 204.169 119.281C203.751 119.281 203.398 119.144 203.123 118.875M203.087 121.576H205.244V133.495H203.087V121.576Z" fill="#ED2926"/>
<path d="M219.339 122.783C220.229 123.661 220.677 124.945 220.677 126.642V133.501H218.52V126.887C218.52 125.734 218.245 124.862 217.689 124.276C217.134 123.691 216.339 123.398 215.306 123.398C214.134 123.398 213.214 123.739 212.539 124.42C211.864 125.101 211.529 126.081 211.529 127.353V133.495H209.373V121.576H211.44V123.374C211.876 122.759 212.462 122.287 213.208 121.958C213.949 121.629 214.792 121.462 215.736 121.462C217.253 121.462 218.454 121.898 219.345 122.777" fill="#ED2926"/>
<path d="M236.152 121.582V131.882C236.152 133.967 235.632 135.509 234.598 136.507C233.565 137.504 232.017 138 229.968 138C228.845 138 227.769 137.845 226.754 137.54C225.732 137.236 224.907 136.793 224.28 136.226L225.314 134.559C225.869 135.037 226.556 135.419 227.369 135.694C228.187 135.969 229.03 136.112 229.896 136.112C231.288 136.112 232.322 135.784 232.991 135.12C233.66 134.457 233.995 133.453 233.995 132.103V131.159C233.487 131.775 232.86 132.235 232.119 132.545C231.378 132.85 230.571 133.005 229.699 133.005C228.558 133.005 227.53 132.76 226.604 132.276C225.684 131.786 224.961 131.105 224.435 130.227C223.91 129.349 223.647 128.351 223.647 127.222C223.647 126.092 223.91 125.095 224.435 124.216C224.961 123.338 225.684 122.663 226.604 122.179C227.524 121.701 228.558 121.456 229.699 121.456C230.601 121.456 231.432 121.623 232.208 121.952C232.979 122.281 233.613 122.771 234.108 123.416V121.57H236.158L236.152 121.582ZM232.047 130.621C232.669 130.293 233.158 129.833 233.511 129.235C233.864 128.644 234.043 127.975 234.043 127.222C234.043 126.069 233.66 125.137 232.896 124.42C232.131 123.703 231.151 123.35 229.95 123.35C228.749 123.35 227.745 123.709 226.981 124.42C226.216 125.131 225.833 126.063 225.833 127.222C225.833 127.969 226.007 128.644 226.365 129.235C226.718 129.827 227.202 130.287 227.829 130.621C228.45 130.95 229.161 131.117 229.956 131.117C230.751 131.117 231.438 130.95 232.059 130.621" fill="#ED2926"/>
<path d="M259.388 126.72C259.914 127.389 260.176 128.231 260.176 129.247C260.176 130.609 259.663 131.661 258.635 132.396C257.607 133.131 256.114 133.495 254.148 133.495H246.638V117.751H253.7C255.498 117.751 256.89 118.11 257.87 118.833C258.85 119.556 259.346 120.548 259.346 121.826C259.346 122.651 259.155 123.362 258.772 123.965C258.39 124.563 257.876 125.023 257.231 125.339C258.145 125.596 258.868 126.056 259.388 126.726M248.884 119.586V124.622H253.497C254.65 124.622 255.54 124.407 256.161 123.983C256.783 123.559 257.093 122.932 257.093 122.107C257.093 121.283 256.783 120.655 256.161 120.231C255.54 119.807 254.65 119.592 253.497 119.592H248.884V119.586ZM256.938 131.057C257.583 130.639 257.906 129.976 257.906 129.08C257.906 127.329 256.627 126.451 254.058 126.451H248.884V131.691H254.058C255.331 131.691 256.293 131.482 256.938 131.063" fill="#ED2926"/>
<path d="M274.456 121.581V133.501H272.407V131.702C271.971 132.318 271.397 132.796 270.686 133.13C269.975 133.471 269.198 133.638 268.356 133.638C266.767 133.638 265.512 133.202 264.598 132.324C263.684 131.445 263.224 130.155 263.224 128.446V121.587H265.38V128.201C265.38 129.354 265.655 130.232 266.211 130.824C266.767 131.415 267.561 131.714 268.595 131.714C269.736 131.714 270.632 131.368 271.295 130.68C271.959 129.993 272.287 129.013 272.287 127.759V121.599H274.444L274.456 121.581Z" fill="#ED2926"/>
<path d="M279.176 133.244C278.274 132.982 277.569 132.647 277.061 132.241L277.963 130.532C278.489 130.908 279.122 131.207 279.875 131.428C280.628 131.655 281.381 131.763 282.145 131.763C284.034 131.763 284.978 131.225 284.978 130.144C284.978 129.785 284.852 129.498 284.595 129.289C284.338 129.08 284.022 128.925 283.639 128.829C283.257 128.733 282.713 128.62 282.008 128.5C281.046 128.351 280.263 128.178 279.66 127.987C279.051 127.789 278.531 127.461 278.095 126.995C277.658 126.529 277.443 125.878 277.443 125.041C277.443 123.96 277.891 123.093 278.794 122.442C279.696 121.791 280.903 121.462 282.414 121.462C283.209 121.462 284.004 121.558 284.798 121.755C285.593 121.952 286.244 122.215 286.758 122.544L285.838 124.252C284.864 123.625 283.717 123.308 282.396 123.308C281.482 123.308 280.783 123.458 280.305 123.756C279.827 124.055 279.588 124.456 279.588 124.951C279.588 125.34 279.726 125.65 279.995 125.872C280.263 126.099 280.598 126.26 280.998 126.367C281.399 126.475 281.954 126.595 282.671 126.726C283.627 126.893 284.404 127.067 285.001 127.252C285.593 127.437 286.101 127.76 286.519 128.208C286.937 128.656 287.146 129.289 287.146 130.096C287.146 131.177 286.686 132.032 285.766 132.671C284.846 133.31 283.585 133.627 281.996 133.627C281.022 133.627 280.084 133.495 279.188 133.233" fill="#ED2926"/>
<path d="M289.871 118.881C289.59 118.612 289.453 118.283 289.453 117.889C289.453 117.495 289.59 117.166 289.871 116.885C290.146 116.61 290.498 116.467 290.917 116.467C291.335 116.467 291.687 116.598 291.962 116.861C292.237 117.124 292.381 117.453 292.381 117.841C292.381 118.23 292.243 118.588 291.962 118.863C291.681 119.138 291.335 119.281 290.917 119.281C290.498 119.281 290.146 119.144 289.871 118.875M289.835 121.576H291.992V133.495H289.835V121.576Z" fill="#ED2926"/>
<path d="M306.087 122.783C306.977 123.661 307.425 124.945 307.425 126.642V133.501H305.268V126.887C305.268 125.734 304.993 124.862 304.438 124.276C303.882 123.691 303.087 123.398 302.054 123.398C300.883 123.398 299.963 123.739 299.288 124.42C298.612 125.101 298.278 126.081 298.278 127.353V133.495H296.121V121.576H298.188V123.374C298.624 122.759 299.21 122.287 299.951 121.958C300.692 121.629 301.534 121.462 302.478 121.462C303.996 121.462 305.197 121.898 306.087 122.777" fill="#ED2926"/>
<path d="M322.225 128.261H312.552C312.689 129.313 313.149 130.155 313.938 130.794C314.727 131.434 315.706 131.75 316.872 131.75C318.294 131.75 319.441 131.272 320.313 130.31L321.508 131.702C320.97 132.33 320.295 132.814 319.495 133.142C318.694 133.471 317.798 133.638 316.806 133.638C315.545 133.638 314.428 133.381 313.454 132.862C312.48 132.342 311.727 131.619 311.196 130.693C310.664 129.761 310.395 128.715 310.395 127.544C310.395 126.373 310.652 125.345 311.172 124.419C311.691 123.493 312.402 122.764 313.311 122.25C314.219 121.731 315.24 121.474 316.382 121.474C317.523 121.474 318.539 121.731 319.429 122.25C320.319 122.77 321.018 123.493 321.52 124.419C322.022 125.351 322.273 126.415 322.273 127.616C322.273 127.783 322.255 127.998 322.225 128.267M313.777 124.24C313.078 124.867 312.671 125.692 312.552 126.714H320.2C320.08 125.71 319.674 124.885 318.975 124.252C318.276 123.613 317.409 123.296 316.376 123.296C315.342 123.296 314.476 123.613 313.777 124.24Z" fill="#ED2926"/>
<path d="M325.869 133.244C324.967 132.982 324.262 132.647 323.754 132.241L324.656 130.532C325.182 130.908 325.815 131.207 326.568 131.428C327.315 131.655 328.074 131.763 328.839 131.763C330.727 131.763 331.671 131.225 331.671 130.144C331.671 129.785 331.545 129.498 331.288 129.289C331.031 129.08 330.715 128.925 330.332 128.829C329.95 128.733 329.406 128.62 328.701 128.5C327.739 128.351 326.957 128.178 326.353 127.987C325.744 127.789 325.224 127.461 324.788 126.995C324.352 126.529 324.137 125.878 324.137 125.041C324.137 123.96 324.585 123.093 325.487 122.442C326.389 121.791 327.596 121.462 329.108 121.462C329.902 121.462 330.697 121.558 331.492 121.755C332.286 121.952 332.937 122.215 333.451 122.544L332.531 124.252C331.557 123.625 330.41 123.308 329.09 123.308C328.175 123.308 327.476 123.458 326.998 123.756C326.52 124.055 326.281 124.456 326.281 124.951C326.281 125.34 326.419 125.65 326.688 125.872C326.957 126.099 327.291 126.26 327.692 126.367C328.086 126.475 328.648 126.595 329.364 126.726C330.326 126.893 331.103 127.067 331.695 127.252C332.286 127.437 332.794 127.76 333.212 128.208C333.631 128.656 333.84 129.289 333.84 130.096C333.84 131.177 333.38 132.032 332.459 132.671C331.539 133.31 330.279 133.627 328.689 133.627C327.715 133.627 326.777 133.495 325.875 133.233" fill="#ED2926"/>
<path d="M337.138 133.244C336.235 132.982 335.53 132.647 335.023 132.241L335.925 130.532C336.451 130.908 337.09 131.207 337.837 131.428C338.59 131.655 339.342 131.763 340.107 131.763C341.995 131.763 342.939 131.225 342.939 130.144C342.939 129.785 342.814 129.498 342.557 129.289C342.3 129.08 341.983 128.925 341.601 128.829C341.218 128.733 340.675 128.62 339.97 128.5C339.014 128.351 338.225 128.178 337.622 127.987C337.012 127.789 336.492 127.461 336.056 126.995C335.62 126.529 335.405 125.878 335.405 125.041C335.405 123.96 335.853 123.093 336.755 122.442C337.657 121.791 338.864 121.462 340.376 121.462C341.171 121.462 341.965 121.558 342.76 121.755C343.555 121.952 344.206 122.215 344.72 122.544L343.8 124.252C342.826 123.625 341.679 123.308 340.358 123.308C339.444 123.308 338.745 123.458 338.267 123.756C337.789 124.055 337.55 124.456 337.55 124.951C337.55 125.34 337.687 125.65 337.956 125.872C338.225 126.099 338.56 126.26 338.96 126.367C339.354 126.475 339.916 126.595 340.633 126.726C341.589 126.893 342.366 127.067 342.963 127.252C343.555 127.437 344.062 127.76 344.481 128.208C344.899 128.656 345.108 129.289 345.108 130.096C345.108 131.177 344.648 132.032 343.728 132.671C342.808 133.31 341.547 133.627 339.958 133.627C338.984 133.627 338.046 133.495 337.144 133.233" fill="#ED2926"/>
<path d="M368.756 133.5L368.739 122.029L363.045 131.588H362.011L356.323 122.101V133.5H354.16V117.757H356.006L362.573 128.822L369.049 117.757H370.895L370.919 133.5H368.756Z" fill="#ED2926"/>
<path d="M383.455 122.686C384.333 123.493 384.769 124.706 384.769 126.307V133.501H382.72V131.929C382.362 132.485 381.848 132.909 381.178 133.202C380.509 133.495 379.721 133.638 378.807 133.638C377.474 133.638 376.405 133.316 375.604 132.67C374.803 132.025 374.397 131.177 374.397 130.131C374.397 129.085 374.779 128.237 375.544 127.604C376.309 126.964 377.522 126.648 379.189 126.648H382.606V126.218C382.606 125.285 382.338 124.574 381.794 124.079C381.256 123.583 380.462 123.338 379.41 123.338C378.705 123.338 378.018 123.451 377.343 123.684C376.668 123.917 376.1 124.228 375.634 124.616L374.732 122.997C375.347 122.501 376.082 122.125 376.936 121.862C377.791 121.599 378.699 121.468 379.661 121.468C381.31 121.468 382.577 121.874 383.449 122.68M381.298 131.416C381.895 131.051 382.332 130.525 382.6 129.85V128.183H379.273C377.444 128.183 376.53 128.799 376.53 130.029C376.53 130.627 376.763 131.099 377.229 131.445C377.695 131.792 378.34 131.959 379.165 131.959C379.989 131.959 380.701 131.774 381.304 131.41" fill="#ED2926"/>
<path d="M400.089 116.813V133.501H398.021V131.613C397.543 132.276 396.934 132.778 396.199 133.119C395.464 133.465 394.652 133.632 393.767 133.632C392.614 133.632 391.581 133.375 390.66 132.868C389.746 132.36 389.029 131.643 388.51 130.717C387.99 129.797 387.733 128.733 387.733 127.532C387.733 126.331 387.99 125.274 388.51 124.36C389.029 123.445 389.74 122.734 390.66 122.227C391.575 121.719 392.608 121.462 393.767 121.462C394.622 121.462 395.41 121.623 396.127 121.946C396.844 122.268 397.448 122.746 397.926 123.374V116.807H400.083L400.089 116.813ZM395.996 131.219C396.611 130.866 397.089 130.37 397.436 129.737C397.782 129.098 397.956 128.369 397.956 127.544C397.956 126.72 397.782 125.991 397.436 125.351C397.089 124.712 396.611 124.222 395.996 123.876C395.381 123.529 394.699 123.356 393.947 123.356C393.194 123.356 392.495 123.529 391.891 123.876C391.282 124.222 390.804 124.712 390.451 125.351C390.099 125.991 389.926 126.72 389.926 127.544C389.926 128.369 390.099 129.098 390.451 129.737C390.804 130.376 391.282 130.866 391.891 131.219C392.501 131.571 393.182 131.744 393.947 131.744C394.711 131.744 395.381 131.571 395.996 131.219Z" fill="#ED2926"/>
<path d="M414.912 128.261H405.239C405.376 129.313 405.836 130.155 406.625 130.794C407.414 131.434 408.388 131.75 409.559 131.75C410.981 131.75 412.128 131.272 413 130.31L414.195 131.702C413.657 132.33 412.982 132.814 412.182 133.142C411.381 133.471 410.485 133.638 409.493 133.638C408.232 133.638 407.115 133.381 406.141 132.862C405.167 132.342 404.414 131.619 403.883 130.693C403.351 129.761 403.082 128.715 403.082 127.544C403.082 126.373 403.339 125.345 403.859 124.419C404.378 123.493 405.089 122.764 405.998 122.25C406.906 121.731 407.927 121.474 409.069 121.474C410.21 121.474 411.226 121.731 412.116 122.25C413.006 122.77 413.705 123.493 414.207 124.419C414.709 125.351 414.96 126.415 414.96 127.616C414.96 127.783 414.942 127.998 414.912 128.267M406.464 124.24C405.765 124.867 405.358 125.692 405.239 126.714H412.887C412.767 125.71 412.355 124.885 411.662 124.252C410.963 123.613 410.096 123.296 409.063 123.296C408.029 123.296 407.163 123.613 406.464 124.24Z" fill="#ED2926"/>
<path d="M435.734 131.547V133.5H424.31V117.757H435.423V119.717H426.563V124.55H434.455V126.462H426.563V131.547H435.734Z" fill="#ED2926"/>
<path d="M447.039 122.686C447.917 123.493 448.353 124.706 448.353 126.307V133.501H446.304V131.929C445.945 132.485 445.431 132.909 444.762 133.202C444.093 133.495 443.304 133.638 442.39 133.638C441.058 133.638 439.988 133.316 439.188 132.67C438.387 132.025 437.981 131.177 437.981 130.131C437.981 129.085 438.363 128.237 439.128 127.604C439.893 126.964 441.106 126.648 442.773 126.648H446.19V126.218C446.19 125.285 445.921 124.574 445.378 124.079C444.84 123.583 444.045 123.338 442.994 123.338C442.289 123.338 441.602 123.451 440.926 123.684C440.251 123.917 439.684 124.228 439.218 124.616L438.315 122.997C438.931 122.501 439.666 122.125 440.52 121.862C441.375 121.599 442.283 121.468 443.245 121.468C444.894 121.468 446.154 121.874 447.033 122.68M444.888 131.416C445.485 131.051 445.921 130.525 446.19 129.85V128.183H442.862C441.034 128.183 440.12 128.799 440.12 130.029C440.12 130.627 440.353 131.099 440.819 131.445C441.285 131.792 441.93 131.959 442.755 131.959C443.579 131.959 444.29 131.774 444.894 131.41" fill="#ED2926"/>
<path d="M452.965 133.244C452.063 132.982 451.358 132.647 450.85 132.241L451.753 130.532C452.278 130.908 452.912 131.207 453.664 131.428C454.411 131.655 455.17 131.763 455.935 131.763C457.823 131.763 458.767 131.225 458.767 130.144C458.767 129.785 458.641 129.498 458.385 129.289C458.128 129.08 457.811 128.925 457.429 128.829C457.046 128.733 456.502 128.62 455.797 128.5C454.841 128.351 454.053 128.178 453.449 127.987C452.84 127.789 452.32 127.461 451.884 126.995C451.448 126.529 451.233 125.878 451.233 125.041C451.233 123.96 451.681 123.093 452.583 122.442C453.485 121.791 454.692 121.462 456.204 121.462C456.998 121.462 457.793 121.558 458.588 121.755C459.382 121.952 460.034 122.215 460.547 122.544L459.627 124.252C458.653 123.625 457.506 123.308 456.186 123.308C455.272 123.308 454.573 123.458 454.095 123.756C453.617 124.055 453.378 124.456 453.378 124.951C453.378 125.34 453.515 125.65 453.784 125.872C454.053 126.099 454.387 126.26 454.788 126.367C455.182 126.475 455.744 126.595 456.461 126.726C457.417 126.893 458.193 127.067 458.785 127.252C459.376 127.437 459.884 127.76 460.302 128.208C460.721 128.656 460.93 129.289 460.93 130.096C460.93 131.177 460.47 132.032 459.55 132.671C458.624 133.31 457.369 133.627 455.78 133.627C454.806 133.627 453.868 133.495 452.965 133.233" fill="#ED2926"/>
<path d="M463.661 118.881C463.386 118.612 463.242 118.283 463.242 117.889C463.242 117.495 463.38 117.166 463.661 116.885C463.935 116.61 464.288 116.467 464.706 116.467C465.124 116.467 465.477 116.598 465.752 116.861C466.027 117.124 466.17 117.453 466.17 117.841C466.17 118.23 466.033 118.588 465.752 118.863C465.477 119.138 465.124 119.281 464.706 119.281C464.288 119.281 463.935 119.144 463.661 118.875M463.625 121.576H465.782V133.495H463.625V121.576Z" fill="#ED2926"/>
<path d="M480.629 128.261H470.956C471.093 129.313 471.553 130.155 472.342 130.794C473.13 131.434 474.104 131.75 475.275 131.75C476.697 131.75 477.845 131.272 478.717 130.31L479.912 131.702C479.374 132.33 478.699 132.814 477.898 133.142C477.098 133.471 476.201 133.638 475.21 133.638C473.949 133.638 472.832 133.381 471.858 132.862C470.884 132.342 470.131 131.619 469.599 130.693C469.068 129.761 468.799 128.715 468.799 127.544C468.799 126.373 469.056 125.345 469.575 124.419C470.095 123.493 470.806 122.764 471.714 122.25C472.623 121.731 473.644 121.474 474.785 121.474C475.927 121.474 476.942 121.731 477.833 122.25C478.723 122.77 479.422 123.493 479.924 124.419C480.426 125.351 480.677 126.415 480.677 127.616C480.677 127.783 480.665 127.998 480.629 128.267M472.18 124.24C471.481 124.867 471.075 125.692 470.956 126.714H478.603C478.484 125.71 478.072 124.885 477.379 124.252C476.685 123.619 475.813 123.296 474.779 123.296C473.746 123.296 472.879 123.613 472.18 124.24Z" fill="#ED2926"/>
<path d="M487.398 122.011C488.133 121.653 489.023 121.474 490.075 121.474V123.565C489.955 123.547 489.788 123.541 489.579 123.541C488.408 123.541 487.494 123.887 486.824 124.586C486.155 125.286 485.827 126.277 485.827 127.568V133.507H483.67V121.587H485.737V123.589C486.113 122.902 486.669 122.376 487.398 122.011Z" fill="#ED2926"/>
<path d="M166.945 40.5923H198.749C207.735 40.5923 213.973 42.7432 217.45 47.051C219.727 49.8652 220.868 53.3485 220.868 57.495C220.868 63.1591 218.496 67.4669 213.746 70.4065V70.5977C220.426 73.3521 223.76 78.604 223.76 86.3593V87.5005C223.76 96.2655 219.327 102.408 210.466 105.921C208.154 106.68 205.895 107.062 203.679 107.062H166.933V40.6042L166.945 40.5923ZM185.318 54.645V66.6066H197.895C201.629 66.6066 203.499 64.4258 203.499 60.0582C203.499 57.023 201.916 55.2963 198.749 54.884C197.961 54.7287 196.819 54.645 195.332 54.645H185.318ZM185.318 79.9005V92.3878H199.275C202.125 92.3878 204.055 91.1391 205.065 88.6357C205.381 87.3989 205.537 86.3593 205.537 85.5049C205.537 81.7706 203.099 79.9005 198.224 79.9005H185.312H185.318Z" fill="#0A2543"/>
<path d="M246.942 87.877H245.52V107.056H227.1V40.5984H257.769C268.625 40.5984 275.968 43.765 279.798 50.0923C282.707 53.7967 284.165 58.2898 284.165 63.5715V64.7127C284.165 75.4733 278.453 82.7208 267.03 86.455C276.141 98.1656 282.301 105.031 285.498 107.056H263.188C260.117 105.096 254.704 98.7033 246.954 87.877H246.942ZM245.52 56.1687V72.1214H254.16C260.111 72.1214 263.528 71.4284 264.413 70.0303C265.422 68.4469 265.93 66.7382 265.93 64.9039C265.93 59.0785 262.196 56.1687 254.727 56.1687H245.52Z" fill="#0A2543"/>
<path d="M315.3 38.9797C324.543 38.9797 331.563 41.6086 336.379 46.8605C339.922 51.1623 341.697 55.6912 341.697 60.4352H324.8C324.483 58.4755 323.683 56.9997 322.404 56.0199C321.119 55.04 318.753 54.5501 315.306 54.5501C309.863 54.5501 306.822 55.751 306.194 58.1588C306.194 58.2246 306.129 58.4755 306.003 58.9177C306.003 61.7318 309.355 63.7572 316.065 64.994C325.367 67.2107 331.51 69.3616 334.485 71.4528C340.812 74.9958 343.979 80.2537 343.979 87.2143C343.979 96.2363 339.169 102.629 329.55 106.393C325.403 107.786 320.97 108.485 316.256 108.485C308.883 108.485 302.55 106.71 297.268 103.167C292.363 99.5284 289.417 95.6029 288.437 91.3967C287.929 89.4967 287.678 87.28 287.678 84.7527H303.631C304.898 88.0448 306.326 90.13 307.927 91.0203C309.522 91.9045 311.924 92.3467 315.121 92.3467H317.397C323.157 91.9344 326.037 90.4168 326.037 87.7879C326.037 84.7826 321.322 82.5659 311.888 81.1439C303.721 79.2439 298.027 77.2185 294.8 75.0675C289.991 71.5544 287.583 66.7446 287.583 60.6384C287.583 51.6164 292.142 45.2294 301.253 41.4593C306.129 39.8162 310.813 38.9917 315.306 38.9917L315.3 38.9797Z" fill="#0A2543"/>
</svg>
